<?xml version="1.0" standalone="no"?>
<!DOCTYPE svg PUBLIC "-//W3C//DTD SVG 20010904//EN"
 "http://www.w3.org/TR/2001/REC-SVG-20010904/DTD/svg10.dtd">
<svg version="1.0" xmlns="http://www.w3.org/2000/svg"
 width="512.000000pt" height="512.000000pt" viewBox="0 0 512.000000 512.000000"
 preserveAspectRatio="xMidYMid meet">
<metadata>
Created by potrace 1.14, written by Peter Selinger 2001-2017
</metadata>
<g transform="translate(0.000000,512.000000) scale(0.100000,-0.100000)"
fill="#000000" stroke="none">
<path d="M2990 4120 c0 -15 -7 -20 -25 -20 -20 0 -25 -5 -25 -25 0 -18 -5 -25
-19 -25 -15 0 -20 -10 -25 -45 -6 -36 -11 -45 -27 -45 -13 0 -19 -7 -19 -23 0
-13 -11 -33 -25 -45 -14 -12 -28 -35 -31 -51 -4 -17 -14 -31 -25 -34 -11 -3
-19 -14 -19 -27 0 -13 -8 -24 -20 -27 -13 -4 -22 -18 -27 -47 -7 -31 -14 -42
-30 -44 -15 -2 -23 -11 -25 -30 -2 -15 -8 -26 -15 -25 -7 2 -10 -4 -7 -12 4
-8 -1 -17 -10 -21 -9 -3 -16 -17 -16 -30 0 -17 -6 -24 -19 -24 -16 0 -21 -10
-27 -46 -5 -33 -12 -48 -25 -51 -15 -4 -19 -15 -19 -49 0 -40 -2 -44 -25 -44
-22 0 -25 -5 -25 -32 0 -38 -8 -52 -32 -61 -10 -3 -18 -16 -18 -27 0 -13 -10
-24 -25 -30 -15 -6 -25 -17 -25 -30 0 -17 -7 -20 -40 -20 -33 0 -42 4 -49 24
-7 17 -20 25 -50 30 -27 4 -41 11 -41 21 0 8 7 15 15 15 8 0 18 14 23 33 5 20
15 32 24 31 11 -1 18 11 22 40 5 30 13 44 29 51 12 6 23 16 23 23 1 6 2 17 3
22 0 6 8 10 16 10 8 0 15 9 15 19 0 11 5 23 10 26 6 3 10 15 10 26 0 12 7 19
19 19 13 0 21 8 23 23 2 14 11 23 26 25 16 2 22 10 22 27 0 17 6 25 23 27 22
3 24 6 26 58 1 23 6 30 20 30 16 0 21 9 27 45 5 35 10 45 25 45 16 0 19 8 19
55 l0 56 -67 -3 c-66 -3 -68 -4 -71 -30 -2 -16 -9 -28 -17 -28 -18 0 -35 -31
-35 -64 0 -19 -5 -26 -19 -26 -15 0 -21 -10 -26 -41 -5 -29 -13 -43 -30 -49
-13 -5 -25 -19 -27 -32 -2 -15 -11 -24 -25 -26 -14 -2 -23 -10 -23 -22 0 -10
-9 -20 -20 -23 -12 -3 -20 -14 -20 -25 0 -12 -8 -23 -19 -27 -12 -3 -21 -20
-27 -48 -7 -33 -14 -43 -32 -45 -19 -3 -22 -9 -22 -48 0 -40 -2 -44 -25 -44
-20 0 -25 -5 -25 -25 0 -23 -4 -26 -27 -24 -5 0 -13 -19 -18 -42 -6 -23 -17
-44 -25 -47 -13 -3 -13 -2 0 7 8 5 12 13 8 16 -3 3 -13 -1 -21 -10 -23 -22
-57 -20 -57 5 0 13 -7 20 -19 20 -24 0 -30 8 -33 50 -2 23 -9 35 -25 41 -16 6
-23 17 -23 34 0 18 -5 25 -19 25 -15 0 -20 10 -25 45 -6 36 -11 45 -27 45 -14
0 -19 7 -19 25 0 14 -4 25 -10 25 -5 0 -10 8 -11 18 0 14 -2 14 -8 -3 -8 -19
-9 -18 -12 5 -4 24 -7 25 -72 24 -76 -1 -87 -8 -87 -61 0 -26 -4 -33 -19 -33
-19 0 -31 -39 -31 -107 0 -26 -4 -33 -19 -33 -17 0 -20 -8 -23 -47 -3 -41 -6
-48 -25 -51 -20 -3 -22 -10 -25 -75 -3 -66 -5 -72 -25 -75 -15 -2 -23 -10 -23
-23 0 -15 -7 -19 -37 -19 -73 0 -113 -11 -113 -31 0 -14 -9 -19 -42 -21 -36
-2 -44 -7 -46 -25 -3 -20 -9 -23 -47 -23 -55 0 -95 15 -95 35 0 12 -14 15 -75
15 -66 0 -75 2 -75 19 0 15 -11 19 -68 24 -84 8 -209 7 -242 -2 -23 -6 -25
-11 -25 -71 0 -60 2 -65 22 -68 17 -3 23 -10 23 -28 0 -17 5 -24 20 -24 13 0
22 -9 26 -25 4 -15 13 -25 24 -25 12 0 20 -9 22 -22 2 -15 11 -24 26 -26 14
-2 22 -10 22 -23 0 -11 9 -21 24 -25 18 -4 26 -15 31 -40 4 -24 14 -39 31 -46
13 -6 24 -19 24 -30 0 -11 7 -18 20 -18 12 0 25 -10 32 -25 7 -16 22 -27 44
-31 30 -5 34 -10 40 -50 5 -33 11 -44 24 -44 14 0 19 -13 24 -70 6 -59 10 -70
26 -70 12 0 20 -8 22 -22 2 -15 11 -24 26 -26 16 -3 22 -10 22 -28 0 -19 5
-24 25 -24 20 0 25 -5 25 -25 0 -20 -5 -25 -25 -25 -20 0 -25 -5 -25 -25 0
-20 -5 -25 -25 -25 -18 0 -25 -5 -25 -19 0 -16 -9 -21 -45 -27 -34 -5 -45 -11
-45 -24 0 -12 -9 -20 -23 -22 -14 -2 -23 -11 -25 -26 -3 -16 -10 -22 -28 -22
-19 0 -24 -5 -24 -25 0 -20 -5 -25 -25 -25 -18 0 -25 -5 -25 -20 0 -13 -10
-24 -25 -30 -14 -5 -25 -16 -25 -24 0 -7 -11 -17 -25 -20 -16 -4 -25 -13 -25
-25 0 -12 -9 -21 -25 -25 -14 -4 -25 -13 -25 -21 0 -9 -11 -20 -25 -25 -14 -5
-25 -16 -25 -25 0 -8 -9 -15 -20 -15 -11 0 -20 -4 -20 -10 0 -5 -9 -10 -20
-10 -13 0 -20 -7 -20 -20 0 -15 -7 -20 -24 -20 -18 0 -25 -6 -28 -22 -3 -20
-10 -23 -50 -26 -38 -2 -46 -6 -41 -19 7 -18 -13 -33 -44 -33 -16 0 -23 -6
-23 -20 0 -17 -7 -20 -40 -20 -22 0 -40 -3 -41 -7 -7 -64 -17 -98 -26 -90 -14
15 -33 -18 -33 -57 1 -50 17 -74 58 -82 26 -5 36 -1 62 24 16 17 30 38 30 47
0 9 9 19 19 22 11 3 21 15 23 27 2 13 11 22 24 24 12 2 24 12 27 23 3 13 14
19 31 19 15 0 26 6 26 14 0 17 43 35 93 38 22 1 37 7 37 15 0 7 -7 10 -18 7
-9 -3 -6 2 8 10 14 8 33 15 43 16 10 0 17 8 17 20 0 15 7 20 25 20 20 0 25 5
25 25 0 20 5 25 24 25 18 0 25 6 28 23 2 14 11 23 25 25 14 2 23 11 25 25 2
14 11 23 25 25 15 2 23 10 23 22 0 12 8 20 22 22 15 2 24 11 26 25 2 14 11 23
25 25 14 2 23 11 25 25 2 14 11 23 25 25 14 2 23 11 25 26 2 14 10 22 23 22
12 0 23 10 29 25 5 14 16 25 22 24 39 -5 57 2 60 24 2 16 11 23 31 25 18 2 27
9 27 22 0 14 11 20 49 25 27 4 69 3 95 0 l46 -7 0 -42 c0 -58 -9 -83 -30 -89
-11 -3 -20 -16 -22 -33 -2 -17 -9 -29 -18 -29 -8 0 -18 -17 -25 -45 -7 -28
-17 -46 -27 -48 -9 -2 -20 -16 -23 -33 -4 -18 -13 -29 -23 -29 -15 0 -15 -2
-2 -10 11 -7 11 -10 2 -10 -7 0 -18 -13 -23 -30 -7 -19 -18 -30 -29 -30 -15 0
-19 -9 -22 -42 -2 -36 -7 -44 -25 -46 -18 -3 -23 -10 -23 -33 0 -22 -5 -29
-19 -29 -19 0 -31 -25 -31 -67 0 -16 -6 -23 -19 -23 -13 0 -20 -9 -24 -30 -5
-21 -12 -30 -26 -30 -16 0 -20 -8 -23 -42 -2 -36 -7 -44 -26 -46 -14 -2 -22
-10 -22 -22 0 -11 -11 -30 -25 -44 -14 -14 -25 -37 -25 -51 0 -20 5 -25 25
-25 20 0 25 -5 25 -25 0 -26 8 -29 58 -19 26 5 32 12 37 45 5 29 12 39 25 39
13 0 20 9 22 28 2 19 9 28 26 30 16 3 22 10 22 30 0 32 14 57 32 57 7 0 15 14
18 30 4 20 11 29 22 27 12 -2 17 9 22 42 5 31 12 45 26 49 10 2 20 15 22 28 2
16 11 25 24 27 17 2 23 12 29 48 5 35 10 44 26 44 14 0 19 7 19 25 0 18 5 25
19 25 15 0 21 11 27 48 7 38 13 48 32 50 16 3 22 10 22 30 0 32 9 46 33 55 11
4 17 17 17 37 0 23 4 30 19 30 16 0 21 9 27 45 l6 45 239 0 239 0 0 44 0 43
-46 7 c-26 3 -95 6 -154 6 -106 0 -108 0 -102 22 4 17 2 20 -11 15 -25 -10
-38 16 -31 63 5 30 13 44 25 47 22 6 26 33 5 33 -8 0 -19 14 -25 30 -7 20 -17
30 -30 30 -19 0 -21 6 -21 70 l0 70 -51 0 c-42 0 -52 -3 -56 -20 -7 -25 -20
-26 -26 -2 -4 13 -5 11 -6 -5 -1 -18 -7 -23 -26 -23 -18 0 -25 -5 -25 -20 0
-13 -7 -20 -20 -20 -12 0 -24 -10 -29 -24 -10 -25 -44 -36 -112 -36 -46 0 -77
26 -86 70 -4 21 -11 30 -24 30 -15 0 -19 8 -19 39 0 63 -11 99 -31 104 -11 3
-19 14 -19 25 0 14 -8 22 -22 24 -15 2 -24 11 -26 25 -2 14 -11 23 -25 25 -14
2 -23 11 -25 26 -2 14 -10 22 -22 22 -12 0 -20 8 -22 23 -2 14 -11 23 -26 25
-14 2 -22 10 -22 22 0 12 -8 20 -22 22 -14 2 -24 12 -28 28 -4 16 -14 26 -27
28 -14 2 -23 12 -25 25 -2 14 -11 23 -26 25 -15 2 -22 9 -20 20 2 13 16 18 51
20 42 3 47 1 47 -17 0 -18 6 -21 44 -21 25 0 48 -4 51 -10 3 -5 15 -10 26 -10
10 0 19 -6 19 -14 0 -16 50 -26 132 -26 43 0 60 4 70 18 16 21 52 42 73 42 8
0 15 8 15 19 0 22 40 31 138 31 55 0 62 2 62 20 0 13 7 20 19 20 17 0 28 25
35 75 1 6 9 9 19 9 14 -2 17 7 17 50 0 68 8 93 30 99 15 4 20 16 22 53 3 42 6
49 25 52 13 2 23 11 25 25 2 12 11 23 20 25 13 2 18 -7 23 -42 6 -35 12 -46
25 -46 21 0 30 -19 30 -61 0 -22 6 -32 25 -39 15 -6 25 -17 25 -29 0 -16 9
-21 45 -26 l44 -7 3 -91 c3 -102 4 -102 94 -91 41 5 42 6 49 49 5 36 10 45 26
45 13 0 19 7 19 24 0 13 7 26 15 30 8 3 14 9 13 13 -2 4 2 9 7 11 6 1 10 -4
10 -10 0 -8 19 -15 50 -18 l50 -5 3 -47 c3 -42 1 -47 -20 -50 -17 -2 -25 -13
-33 -48 -6 -25 -14 -44 -18 -42 -19 6 -25 -2 -29 -40 -6 -57 -1 -68 33 -68 21
0 27 -4 23 -15 -4 -9 0 -15 10 -15 9 0 16 7 16 15 0 9 12 18 29 21 21 4 31 13
33 28 2 13 11 22 24 24 17 2 23 12 29 48 5 35 10 44 26 44 10 0 20 5 20 10 1
6 2 16 3 23 0 6 11 13 24 15 15 2 22 10 22 27 0 19 7 24 46 30 42 6 44 8 27
21 -14 11 -15 13 -2 8 10 -3 20 -1 24 5 3 6 15 11 25 11 12 0 20 8 22 23 2 14
11 23 26 25 14 2 22 10 22 22 0 12 8 20 22 22 14 2 24 12 28 28 4 16 14 26 28
28 14 2 22 10 22 24 0 11 8 22 19 25 11 3 21 13 24 24 3 13 14 19 31 19 19 0
26 5 26 19 0 19 39 31 103 31 20 0 30 6 34 19 5 19 46 31 111 31 25 0 32 4 32
20 0 16 7 20 38 20 73 0 112 11 112 31 0 17 8 19 71 19 61 0 72 3 76 19 3 11
13 21 24 24 10 3 116 5 235 6 203 1 216 -1 221 -18 5 -21 46 -31 133 -31 68 0
100 -8 100 -25 0 -8 19 -15 48 -19 82 -12 102 -17 99 -29 -1 -6 7 -12 18 -14
40 -8 75 -26 75 -39 0 -8 14 -17 30 -20 21 -5 30 -12 30 -26 0 -11 8 -22 19
-25 11 -3 22 -16 25 -29 4 -15 14 -24 26 -24 15 0 19 -8 22 -42 2 -36 7 -44
26 -46 19 -3 22 -9 22 -48 0 -40 2 -44 25 -44 l25 0 0 -134 c0 -142 4 -166 26
-166 22 0 17 -27 -6 -33 -19 -5 -20 -14 -20 -149 0 -161 -4 -184 -31 -191 -17
-5 -19 -15 -19 -105 0 -87 -2 -100 -17 -98 -19 1 -31 -30 -32 -91 -1 -35 -4
-43 -20 -43 -15 0 -20 -10 -26 -50 -6 -40 -11 -50 -26 -50 -14 0 -19 -7 -19
-26 0 -17 -6 -28 -20 -31 -13 -4 -22 -18 -27 -47 -7 -32 -14 -42 -31 -44 -16
-2 -22 -10 -22 -28 0 -17 -6 -24 -19 -24 -13 0 -20 -11 -27 -42 -7 -34 -14
-44 -32 -46 -16 -3 -22 -10 -22 -28 0 -17 -5 -24 -20 -24 -13 0 -22 -9 -26
-25 -4 -15 -13 -25 -24 -25 -12 0 -20 -9 -22 -22 -2 -15 -11 -24 -25 -26 -17
-2 -23 -10 -23 -27 0 -17 -6 -25 -22 -27 -15 -2 -22 -9 -20 -20 2 -12 -6 -18
-25 -20 -20 -2 -29 -9 -31 -25 -2 -15 -10 -23 -24 -23 -11 0 -22 -8 -25 -20
-3 -11 -13 -20 -23 -20 -21 0 -43 -24 -32 -35 4 -4 0 -6 -8 -3 -8 3 -21 -1
-28 -9 -7 -7 -22 -13 -33 -13 -12 0 -19 -7 -19 -20 0 -15 -9 -21 -41 -26 -29
-5 -43 -13 -46 -25 -4 -12 -14 -19 -30 -19 -16 0 -27 -7 -30 -20 -3 -11 -10
-20 -15 -20 -5 0 -6 5 -3 10 3 6 2 10 -3 10 -6 0 -12 -7 -16 -15 -3 -8 -16
-15 -30 -15 -18 0 -25 -6 -28 -22 -3 -20 -10 -23 -50 -26 -39 -3 -47 -6 -50
-25 -3 -19 -10 -22 -63 -25 -41 -2 -55 -6 -45 -12 13 -8 12 -10 -2 -10 -10 0
-18 -4 -18 -9 0 -5 -23 -12 -51 -16 -38 -5 -53 -12 -56 -26 -5 -17 -16 -19
-117 -19 -61 0 -155 -3 -210 -7 -84 -5 -99 -9 -104 -25 -4 -15 -15 -18 -72
-18 -56 0 -70 3 -81 20 -13 17 -30 20 -171 26 -140 6 -158 9 -158 24 0 13 -12
19 -50 24 -41 5 -50 10 -50 26 0 14 -7 20 -24 20 -18 0 -25 6 -28 23 -2 14
-11 23 -25 25 -14 2 -23 11 -25 25 -2 14 -10 22 -23 22 -13 0 -21 8 -23 23 -2
14 -10 22 -23 22 -18 0 -19 8 -19 145 0 138 1 145 20 145 17 0 20 7 20 50 0
46 2 50 24 50 23 0 25 5 28 48 3 40 6 47 26 50 14 2 22 10 22 24 0 11 8 22 20
25 11 3 23 16 26 29 6 21 15 28 36 25 3 0 9 18 13 40 5 29 13 43 27 47 11 2
24 15 29 28 5 14 17 24 28 24 13 0 21 8 23 22 2 15 11 24 26 26 12 2 22 10 22
18 0 20 20 17 21 -3 1 -12 4 -9 8 7 6 22 13 25 54 28 38 2 47 7 47 21 0 15 11
20 55 26 44 5 55 10 53 23 -2 14 7 18 45 20 40 3 49 7 57 28 9 23 13 24 97 24
129 0 133 2 133 61 0 35 -4 49 -14 49 -8 0 -16 7 -20 15 -8 21 -156 22 -156 1
0 -9 -25 -17 -75 -26 -47 -8 -75 -18 -75 -26 0 -7 -27 -17 -70 -25 -56 -10
-70 -16 -70 -30 0 -14 -10 -19 -47 -21 -41 -3 -48 -6 -51 -25 -3 -20 -9 -23
-47 -23 -38 0 -44 -3 -47 -22 -2 -15 -11 -24 -25 -26 -15 -2 -23 -10 -23 -23
0 -14 -7 -19 -25 -19 -20 0 -25 -5 -25 -25 0 -20 -5 -25 -25 -25 -20 0 -25 -5
-25 -25 0 -20 -5 -25 -25 -25 -20 0 -25 -5 -25 -25 0 -18 -5 -25 -19 -25 -15
0 -21 -10 -26 -40 -6 -36 -14 -45 -38 -41 -4 1 -10 -12 -13 -29 -5 -21 -12
-30 -25 -30 -13 0 -19 -7 -19 -24 0 -37 -18 -76 -34 -76 -9 0 -16 -16 -20 -45
-5 -29 -12 -45 -22 -45 -8 0 -15 -4 -15 -10 -1 -5 -3 -14 -4 -20 -1 -5 -3 -33
-4 -61 -1 -42 -5 -52 -21 -56 -18 -5 -20 -14 -20 -98 0 -83 2 -93 19 -98 14
-3 21 -17 26 -51 6 -35 12 -46 25 -46 12 0 20 -9 22 -22 2 -15 11 -24 26 -26
14 -2 22 -10 22 -22 0 -12 8 -20 23 -22 14 -2 23 -11 25 -24 2 -17 12 -23 48
-29 33 -5 44 -11 44 -24 0 -14 10 -20 44 -25 32 -5 45 -12 49 -26 4 -17 14
-20 70 -20 76 0 97 -6 97 -29 0 -13 2 -13 9 -2 7 11 9 11 13 0 4 -12 72 -14
382 -14 352 0 379 1 391 18 10 13 35 20 101 27 49 5 91 10 93 10 2 0 1 6 -2
14 -7 18 13 26 64 26 32 0 39 4 39 19 0 15 10 20 49 26 37 5 50 11 54 26 3 12
15 19 31 20 14 1 31 3 36 4 6 1 15 3 20 4 6 0 10 10 10 21 0 17 7 20 44 20 39
0 45 3 48 22 2 19 10 24 45 26 34 3 42 7 45 25 2 16 11 23 31 25 18 2 27 9 27
21 0 14 11 20 41 25 29 5 43 12 46 26 3 13 14 20 29 20 19 0 24 5 24 25 0 20
5 25 25 25 17 0 25 5 25 18 0 12 13 22 44 31 28 8 46 20 49 32 3 11 14 19 26
19 16 0 21 6 21 24 0 16 7 27 20 31 11 3 20 13 20 21 0 8 7 17 15 20 8 4 15
15 15 27 0 11 3 17 7 14 10 -11 33 13 33 34 0 12 7 19 20 19 15 0 20 7 20 25
0 20 5 25 25 25 21 0 25 5 25 29 0 21 5 28 18 27 12 -1 20 10 26 42 7 30 15
42 27 42 12 0 19 9 21 28 2 19 9 28 26 30 19 3 22 9 22 48 0 40 2 44 25 44 23
0 25 3 25 49 0 43 3 50 22 53 17 2 22 11 25 47 3 25 11 50 19 56 20 14 33 76
34 153 0 55 3 65 20 69 15 4 20 14 21 42 7 216 15 296 29 296 12 0 16 19 18
103 2 83 0 102 -12 102 -20 0 -26 22 -26 98 0 91 -10 142 -26 142 -8 0 -14 3
-15 8 0 4 -2 15 -5 25 -2 9 -6 25 -8 35 -3 9 -5 20 -5 25 -1 4 -9 7 -20 7 -14
0 -20 10 -25 40 -5 31 -11 40 -26 40 -16 0 -20 7 -20 30 0 25 -4 30 -25 30
-20 0 -25 5 -25 25 0 18 -5 25 -19 25 -12 0 -21 9 -25 25 -4 16 -13 25 -26 25
-13 0 -20 7 -20 20 0 14 -7 20 -22 20 -41 0 -66 11 -71 31 -4 16 -14 19 -57
19 -47 0 -52 2 -47 19 4 18 -3 20 -94 27 -84 6 -99 9 -99 24 0 15 -16 18 -122
23 -155 9 -377 9 -551 0 -124 -5 -137 -8 -137 -25 0 -15 -8 -18 -42 -18 -78 0
-118 -11 -118 -31 0 -16 -8 -19 -59 -19 -79 0 -123 -10 -117 -26 6 -16 -16
-24 -70 -24 -36 0 -44 -3 -44 -19 0 -13 -10 -20 -37 -24 -42 -7 -53 -3 -53 23
0 12 8 20 22 22 18 2 25 12 32 45 6 27 15 43 27 46 11 3 19 13 19 24 0 10 10
23 23 28 12 6 22 17 23 25 1 8 2 25 2 38 1 13 9 22 18 22 8 0 20 14 25 30 7
19 18 30 30 30 13 0 19 7 19 23 0 42 12 67 31 67 14 0 19 7 19 30 0 23 5 30
19 30 19 0 31 25 31 68 0 15 6 22 19 22 22 0 33 49 24 105 -5 34 -7 35 -49 35
-37 0 -44 -3 -44 -20z m-1500 -1944 c0 -41 -2 -44 -31 -50 -51 -10 -59 -8 -59
18 0 18 6 25 23 28 12 2 23 10 23 18 3 25 3 26 24 27 17 2 20 -4 20 -41z"/>
</g>
</svg>
